<svg xmlns="http://www.w3.org/2000/svg" viewBox="0 0 256 256" width="256" height="256">
  <defs>
    <linearGradient id="bg" x1="0" y1="0" x2="0" y2="1">
      <stop offset="0%" stop-color="#F59E0B"/>
      <stop offset="100%" stop-color="#D97706"/>
    </linearGradient>
  </defs>
  <rect width="256" height="256" rx="56" fill="url(#bg)"/>
  <g transform="translate(128,128) scale(7.5)" stroke="white" stroke-width="1.5"
     stroke-linecap="round" stroke-linejoin="round" fill="none">
    <path d="M3 4m0 2a2 2 0 0 1 2-2h14a2 2 0 0 1 2 2v0a2 2 0 0 1-2 2h-14a2 2 0 0 1-2-2z"/>
    <path d="M5 8v10a2 2 0 0 0 2 2h10a2 2 0 0 0 2-2v-10"/>
    <path d="M10 12l4 0"/>
  </g>
</svg>
